<svg width="151" height="151" viewBox="0 0 151 151" fill="none" xmlns="http://www.w3.org/2000/svg">
<path d="M97.9168 81.4167C97.0107 81.4167 96.1416 81.7767 95.5009 82.4174C94.8601 83.0582 94.5002 83.9272 94.5002 84.8333V86.1317L89.4435 81.075C87.658 79.3036 85.2448 78.3097 82.7297 78.3097C80.2146 78.3097 77.8015 79.3036 76.016 81.075L73.6243 83.4667L65.151 74.9933C63.3406 73.27 60.9368 72.3088 58.4372 72.3088C55.9377 72.3088 53.5339 73.27 51.7235 74.9933L46.6668 80.05V60.9167C46.6668 60.0105 47.0268 59.1415 47.6675 58.5007C48.3083 57.86 49.1773 57.5 50.0835 57.5H74.0002C74.9063 57.5 75.7754 57.14 76.4161 56.4993C77.0569 55.8585 77.4168 54.9895 77.4168 54.0833C77.4168 53.1772 77.0569 52.3081 76.4161 51.6674C75.7754 51.0266 74.9063 50.6667 74.0002 50.6667H50.0835C47.365 50.6667 44.7579 51.7466 42.8357 53.6688C40.9134 55.5911 39.8335 58.1982 39.8335 60.9167V101.917C39.8335 104.635 40.9134 107.242 42.8357 109.165C44.7579 111.087 47.365 112.167 50.0835 112.167H91.0835C93.802 112.167 96.4091 111.087 98.3313 109.165C100.254 107.242 101.333 104.635 101.333 101.917V84.8333C101.333 83.9272 100.974 83.0582 100.333 82.4174C99.692 81.7767 98.823 81.4167 97.9168 81.4167ZM50.0835 105.333C49.1773 105.333 48.3083 104.973 47.6675 104.333C47.0268 103.692 46.6668 102.823 46.6668 101.917V89.7192L56.5752 79.8108C57.0771 79.3325 57.7439 79.0657 58.4372 79.0657C59.1306 79.0657 59.7974 79.3325 60.2993 79.8108L71.1302 90.6417L85.8218 105.333H50.0835ZM94.5002 101.917C94.4928 102.57 94.2774 103.205 93.8852 103.728L78.476 88.25L80.8677 85.8583C81.1126 85.6083 81.405 85.4097 81.7277 85.2741C82.0503 85.1386 82.3968 85.0687 82.7468 85.0687C83.0968 85.0687 83.4433 85.1386 83.766 85.2741C84.0887 85.4097 84.381 85.6083 84.626 85.8583L94.5002 95.8008V101.917ZM110.593 51.6575L100.343 41.4075C100.018 41.0965 99.6346 40.8526 99.2152 40.69C98.3833 40.3483 97.4503 40.3483 96.6185 40.69C96.1991 40.8526 95.8159 41.0965 95.491 41.4075L85.241 51.6575C84.5976 52.3009 84.2362 53.1735 84.2362 54.0833C84.2362 54.9932 84.5976 55.8658 85.241 56.5092C85.8844 57.1525 86.757 57.514 87.6668 57.514C88.5767 57.514 89.4493 57.1525 90.0927 56.5092L94.5002 52.0675V71.1667C94.5002 72.0728 94.8601 72.9419 95.5009 73.5826C96.1416 74.2234 97.0107 74.5833 97.9168 74.5833C98.823 74.5833 99.692 74.2234 100.333 73.5826C100.974 72.9419 101.333 72.0728 101.333 71.1667V52.0675L105.741 56.5092C106.059 56.8294 106.437 57.0836 106.853 57.2571C107.269 57.4305 107.716 57.5198 108.167 57.5198C108.618 57.5198 109.064 57.4305 109.481 57.2571C109.897 57.0836 110.275 56.8294 110.593 56.5092C110.913 56.1916 111.167 55.8137 111.341 55.3973C111.514 54.981 111.603 54.5344 111.603 54.0833C111.603 53.6323 111.514 53.1857 111.341 52.7694C111.167 52.353 110.913 51.9751 110.593 51.6575Z" fill="#8F8F8F"/>
<circle cx="75.5" cy="75.5" r="74.5" stroke="#7D7D7D" stroke-width="2" stroke-dasharray="6 6"/>
</svg>
